<?xml version="1.0" encoding="utf-8"?>
<svg xmlns="http://www.w3.org/2000/svg" xmlns:xlink="http://www.w3.org/1999/xlink" width="600" height="400" viewBox="0 0 2400 1600">
<defs>
  <clipPath id="clip600">
    <rect x="0" y="0" width="2400" height="1600"/>
  </clipPath>
</defs>
<path clip-path="url(#clip600)" d="
M0 1600 L2400 1600 L2400 0 L0 0  Z
  " fill="#ffffff" fill-rule="evenodd" fill-opacity="1"/>
<defs>
  <clipPath id="clip601">
    <rect x="480" y="0" width="1681" height="1600"/>
  </clipPath>
</defs>
<path clip-path="url(#clip600)" d="
M86.9921 1521.01 L2352.76 1521.01 L2352.76 47.2441 L86.9921 47.2441  Z
  " fill="#ffffff" fill-rule="evenodd" fill-opacity="1"/>
<defs>
  <clipPath id="clip602">
    <rect x="86" y="47" width="2267" height="1475"/>
  </clipPath>
</defs>
<polyline clip-path="url(#clip602)" style="stroke:#000000; stroke-width:2; stroke-opacity:0.1; fill:none" points="
  146.834,1521.01 146.834,47.2441 
  "/>
<polyline clip-path="url(#clip602)" style="stroke:#000000; stroke-width:2; stroke-opacity:0.1; fill:none" points="
  575.193,1521.01 575.193,47.2441 
  "/>
<polyline clip-path="url(#clip602)" style="stroke:#000000; stroke-width:2; stroke-opacity:0.1; fill:none" points="
  1003.55,1521.01 1003.55,47.2441 
  "/>
<polyline clip-path="url(#clip602)" style="stroke:#000000; stroke-width:2; stroke-opacity:0.1; fill:none" points="
  1431.91,1521.01 1431.91,47.2441 
  "/>
<polyline clip-path="url(#clip602)" style="stroke:#000000; stroke-width:2; stroke-opacity:0.1; fill:none" points="
  1860.27,1521.01 1860.27,47.2441 
  "/>
<polyline clip-path="url(#clip602)" style="stroke:#000000; stroke-width:2; stroke-opacity:0.1; fill:none" points="
  2288.63,1521.01 2288.63,47.2441 
  "/>
<polyline clip-path="url(#clip600)" style="stroke:#000000; stroke-width:4; stroke-opacity:1; fill:none" points="
  86.9921,1521.01 2352.76,1521.01 
  "/>
<polyline clip-path="url(#clip600)" style="stroke:#000000; stroke-width:4; stroke-opacity:1; fill:none" points="
  146.834,1521.01 146.834,1503.32 
  "/>
<polyline clip-path="url(#clip600)" style="stroke:#000000; stroke-width:4; stroke-opacity:1; fill:none" points="
  575.193,1521.01 575.193,1503.32 
  "/>
<polyline clip-path="url(#clip600)" style="stroke:#000000; stroke-width:4; stroke-opacity:1; fill:none" points="
  1003.55,1521.01 1003.55,1503.32 
  "/>
<polyline clip-path="url(#clip600)" style="stroke:#000000; stroke-width:4; stroke-opacity:1; fill:none" points="
  1431.91,1521.01 1431.91,1503.32 
  "/>
<polyline clip-path="url(#clip600)" style="stroke:#000000; stroke-width:4; stroke-opacity:1; fill:none" points="
  1860.27,1521.01 1860.27,1503.32 
  "/>
<polyline clip-path="url(#clip600)" style="stroke:#000000; stroke-width:4; stroke-opacity:1; fill:none" points="
  2288.63,1521.01 2288.63,1503.32 
  "/>
<path clip-path="url(#clip600)" d="M 0 0 M146.834 1550.2 Q143.223 1550.2 141.394 1553.76 Q139.589 1557.31 139.589 1564.43 Q139.589 1571.54 141.394 1575.11 Q143.223 1578.65 146.834 1578.65 Q150.468 1578.65 152.274 1575.11 Q154.102 1571.54 154.102 1564.43 Q154.102 1557.31 152.274 1553.76 Q150.468 1550.2 146.834 1550.2 M146.834 1546.49 Q152.644 1546.49 155.7 1551.1 Q158.778 1555.68 158.778 1564.43 Q158.778 1573.16 155.7 1577.77 Q152.644 1582.35 146.834 1582.35 Q141.024 1582.35 137.945 1577.77 Q134.89 1573.16 134.89 1564.43 Q134.89 1555.68 137.945 1551.1 Q141.024 1546.49 146.834 1546.49 Z" fill="#000000" fill-rule="evenodd" fill-opacity="1" /><path clip-path="url(#clip600)" d="M 0 0 M538.561 1577.74 L546.2 1577.74 L546.2 1551.38 L537.89 1553.05 L537.89 1548.79 L546.154 1547.12 L550.83 1547.12 L550.83 1577.74 L558.469 1577.74 L558.469 1581.68 L538.561 1581.68 L538.561 1577.74 Z" fill="#000000" fill-rule="evenodd" fill-opacity="1" /><path clip-path="url(#clip600)" d="M 0 0 M573.538 1550.2 Q569.927 1550.2 568.098 1553.76 Q566.293 1557.31 566.293 1564.43 Q566.293 1571.54 568.098 1575.11 Q569.927 1578.65 573.538 1578.65 Q577.172 1578.65 578.978 1575.11 Q580.807 1571.54 580.807 1564.43 Q580.807 1557.31 578.978 1553.76 Q577.172 1550.2 573.538 1550.2 M573.538 1546.49 Q579.348 1546.49 582.404 1551.1 Q585.483 1555.68 585.483 1564.43 Q585.483 1573.16 582.404 1577.77 Q579.348 1582.35 573.538 1582.35 Q567.728 1582.35 564.649 1577.77 Q561.594 1573.16 561.594 1564.43 Q561.594 1555.68 564.649 1551.1 Q567.728 1546.49 573.538 1546.49 Z" fill="#000000" fill-rule="evenodd" fill-opacity="1" /><path clip-path="url(#clip600)" d="M 0 0 M600.552 1550.2 Q596.941 1550.2 595.112 1553.76 Q593.307 1557.31 593.307 1564.43 Q593.307 1571.54 595.112 1575.11 Q596.941 1578.65 600.552 1578.65 Q604.186 1578.65 605.992 1575.11 Q607.82 1571.54 607.82 1564.43 Q607.82 1557.31 605.992 1553.76 Q604.186 1550.2 600.552 1550.2 M600.552 1546.49 Q606.362 1546.49 609.418 1551.1 Q612.496 1555.68 612.496 1564.43 Q612.496 1573.16 609.418 1577.77 Q606.362 1582.35 600.552 1582.35 Q594.742 1582.35 591.663 1577.77 Q588.608 1573.16 588.608 1564.43 Q588.608 1555.68 591.663 1551.1 Q594.742 1546.49 600.552 1546.49 Z" fill="#000000" fill-rule="evenodd" fill-opacity="1" /><path clip-path="url(#clip600)" d="M 0 0 M971.192 1577.74 L987.511 1577.74 L987.511 1581.68 L965.567 1581.68 L965.567 1577.74 Q968.229 1574.99 972.812 1570.36 Q977.418 1565.71 978.599 1564.37 Q980.844 1561.84 981.724 1560.11 Q982.627 1558.35 982.627 1556.66 Q982.627 1553.9 980.682 1552.17 Q978.761 1550.43 975.659 1550.43 Q973.46 1550.43 971.006 1551.19 Q968.576 1551.96 965.798 1553.51 L965.798 1548.79 Q968.622 1547.65 971.076 1547.07 Q973.53 1546.49 975.567 1546.49 Q980.937 1546.49 984.131 1549.18 Q987.326 1551.87 987.326 1556.36 Q987.326 1558.49 986.516 1560.41 Q985.729 1562.3 983.622 1564.9 Q983.043 1565.57 979.942 1568.79 Q976.84 1571.98 971.192 1577.74 Z" fill="#000000" fill-rule="evenodd" fill-opacity="1" /><path clip-path="url(#clip600)" d="M 0 0 M1002.58 1550.2 Q998.969 1550.2 997.141 1553.76 Q995.335 1557.31 995.335 1564.43 Q995.335 1571.54 997.141 1575.11 Q998.969 1578.65 1002.58 1578.65 Q1006.21 1578.65 1008.02 1575.11 Q1009.85 1571.54 1009.85 1564.43 Q1009.85 1557.31 1008.02 1553.76 Q1006.21 1550.2 1002.58 1550.2 M1002.58 1546.49 Q1008.39 1546.49 1011.45 1551.1 Q1014.52 1555.68 1014.52 1564.43 Q1014.52 1573.16 1011.45 1577.77 Q1008.39 1582.35 1002.58 1582.35 Q996.77 1582.35 993.692 1577.77 Q990.636 1573.16 990.636 1564.43 Q990.636 1555.68 993.692 1551.1 Q996.77 1546.49 1002.58 1546.49 Z" fill="#000000" fill-rule="evenodd" fill-opacity="1" /><path clip-path="url(#clip600)" d="M 0 0 M1029.59 1550.2 Q1025.98 1550.2 1024.15 1553.76 Q1022.35 1557.31 1022.35 1564.43 Q1022.35 1571.54 1024.15 1575.11 Q1025.98 1578.65 1029.59 1578.65 Q1033.23 1578.65 1035.03 1575.11 Q1036.86 1571.54 1036.86 1564.43 Q1036.86 1557.31 1035.03 1553.76 Q1033.23 1550.2 1029.59 1550.2 M1029.59 1546.49 Q1035.4 1546.49 1038.46 1551.1 Q1041.54 1555.68 1041.54 1564.43 Q1041.54 1573.16 1038.46 1577.77 Q1035.4 1582.35 1029.59 1582.35 Q1023.78 1582.35 1020.71 1577.77 Q1017.65 1573.16 1017.65 1564.43 Q1017.65 1555.68 1020.71 1551.1 Q1023.78 1546.49 1029.59 1546.49 Z" fill="#000000" fill-rule="evenodd" fill-opacity="1" /><path clip-path="url(#clip600)" d="M 0 0 M1409.15 1563.05 Q1412.5 1563.76 1414.38 1566.03 Q1416.28 1568.3 1416.28 1571.63 Q1416.28 1576.75 1412.76 1579.55 Q1409.24 1582.35 1402.76 1582.35 Q1400.58 1582.35 1398.27 1581.91 Q1395.97 1581.49 1393.52 1580.64 L1393.52 1576.12 Q1395.47 1577.26 1397.78 1577.84 Q1400.09 1578.42 1402.62 1578.42 Q1407.02 1578.42 1409.31 1576.68 Q1411.62 1574.94 1411.62 1571.63 Q1411.62 1568.58 1409.47 1566.87 Q1407.34 1565.13 1403.52 1565.13 L1399.49 1565.13 L1399.49 1561.29 L1403.71 1561.29 Q1407.16 1561.29 1408.98 1559.92 Q1410.81 1558.53 1410.81 1555.94 Q1410.81 1553.28 1408.91 1551.87 Q1407.04 1550.43 1403.52 1550.43 Q1401.6 1550.43 1399.4 1550.85 Q1397.2 1551.26 1394.56 1552.14 L1394.56 1547.98 Q1397.22 1547.24 1399.54 1546.87 Q1401.88 1546.49 1403.94 1546.49 Q1409.26 1546.49 1412.36 1548.93 Q1415.47 1551.33 1415.47 1555.45 Q1415.47 1558.32 1413.82 1560.31 Q1412.18 1562.28 1409.15 1563.05 Z" fill="#000000" fill-rule="evenodd" fill-opacity="1" /><path clip-path="url(#clip600)" d="M 0 0 M1431.34 1550.2 Q1427.73 1550.2 1425.9 1553.76 Q1424.1 1557.31 1424.1 1564.43 Q1424.1 1571.54 1425.9 1575.11 Q1427.73 1578.65 1431.34 1578.65 Q1434.98 1578.65 1436.78 1575.11 Q1438.61 1571.54 1438.61 1564.43 Q1438.61 1557.31 1436.78 1553.76 Q1434.98 1550.2 1431.34 1550.2 M1431.34 1546.49 Q1437.15 1546.49 1440.21 1551.1 Q1443.29 1555.68 1443.29 1564.43 Q1443.29 1573.16 1440.21 1577.77 Q1437.15 1582.35 1431.34 1582.35 Q1425.53 1582.35 1422.46 1577.77 Q1419.4 1573.16 1419.4 1564.43 Q1419.4 1555.68 1422.46 1551.1 Q1425.53 1546.49 1431.34 1546.49 Z" fill="#000000" fill-rule="evenodd" fill-opacity="1" /><path clip-path="url(#clip600)" d="M 0 0 M1458.36 1550.2 Q1454.75 1550.2 1452.92 1553.76 Q1451.11 1557.31 1451.11 1564.43 Q1451.11 1571.54 1452.92 1575.11 Q1454.75 1578.65 1458.36 1578.65 Q1461.99 1578.65 1463.8 1575.11 Q1465.63 1571.54 1465.63 1564.43 Q1465.63 1557.31 1463.8 1553.76 Q1461.99 1550.2 1458.36 1550.2 M1458.36 1546.49 Q1464.17 1546.49 1467.22 1551.1 Q1470.3 1555.68 1470.3 1564.43 Q1470.3 1573.16 1467.22 1577.77 Q1464.17 1582.35 1458.36 1582.35 Q1452.55 1582.35 1449.47 1577.77 Q1446.41 1573.16 1446.41 1564.43 Q1446.41 1555.68 1449.47 1551.1 Q1452.55 1546.49 1458.36 1546.49 Z" fill="#000000" fill-rule="evenodd" fill-opacity="1" /><path clip-path="url(#clip600)" d="M 0 0 M1836.27 1551.19 L1824.46 1569.64 L1836.27 1569.64 L1836.27 1551.19 M1835.04 1547.12 L1840.92 1547.12 L1840.92 1569.64 L1845.85 1569.64 L1845.85 1573.53 L1840.92 1573.53 L1840.92 1581.68 L1836.27 1581.68 L1836.27 1573.53 L1820.66 1573.53 L1820.66 1569.02 L1835.04 1547.12 Z" fill="#000000" fill-rule="evenodd" fill-opacity="1" /><path clip-path="url(#clip600)" d="M 0 0 M1860.92 1550.2 Q1857.31 1550.2 1855.48 1553.76 Q1853.67 1557.31 1853.67 1564.43 Q1853.67 1571.54 1855.48 1575.11 Q1857.31 1578.65 1860.92 1578.65 Q1864.55 1578.65 1866.36 1575.11 Q1868.19 1571.54 1868.19 1564.43 Q1868.19 1557.31 1866.36 1553.76 Q1864.55 1550.2 1860.92 1550.2 M1860.92 1546.49 Q1866.73 1546.49 1869.79 1551.1 Q1872.86 1555.68 1872.86 1564.43 Q1872.86 1573.16 1869.79 1577.77 Q1866.73 1582.35 1860.92 1582.35 Q1855.11 1582.35 1852.03 1577.77 Q1848.97 1573.16 1848.97 1564.43 Q1848.97 1555.68 1852.03 1551.1 Q1855.11 1546.49 1860.92 1546.49 Z" fill="#000000" fill-rule="evenodd" fill-opacity="1" /><path clip-path="url(#clip600)" d="M 0 0 M1887.93 1550.2 Q1884.32 1550.2 1882.49 1553.76 Q1880.69 1557.31 1880.69 1564.43 Q1880.69 1571.54 1882.49 1575.11 Q1884.32 1578.65 1887.93 1578.65 Q1891.57 1578.65 1893.37 1575.11 Q1895.2 1571.54 1895.2 1564.43 Q1895.2 1557.31 1893.37 1553.76 Q1891.57 1550.2 1887.93 1550.2 M1887.93 1546.49 Q1893.74 1546.49 1896.8 1551.1 Q1899.88 1555.68 1899.88 1564.43 Q1899.88 1573.16 1896.8 1577.77 Q1893.74 1582.35 1887.93 1582.35 Q1882.12 1582.35 1879.04 1577.77 Q1875.99 1573.16 1875.99 1564.43 Q1875.99 1555.68 1879.04 1551.1 Q1882.12 1546.49 1887.93 1546.49 Z" fill="#000000" fill-rule="evenodd" fill-opacity="1" /><path clip-path="url(#clip600)" d="M 0 0 M2251.89 1547.12 L2270.25 1547.12 L2270.25 1551.06 L2256.18 1551.06 L2256.18 1559.53 Q2257.2 1559.18 2258.21 1559.02 Q2259.23 1558.83 2260.25 1558.83 Q2266.04 1558.83 2269.42 1562 Q2272.8 1565.18 2272.8 1570.59 Q2272.8 1576.17 2269.33 1579.27 Q2265.85 1582.35 2259.53 1582.35 Q2257.36 1582.35 2255.09 1581.98 Q2252.84 1581.61 2250.44 1580.87 L2250.44 1576.17 Q2252.52 1577.3 2254.74 1577.86 Q2256.96 1578.42 2259.44 1578.42 Q2263.45 1578.42 2265.78 1576.31 Q2268.12 1574.2 2268.12 1570.59 Q2268.12 1566.98 2265.78 1564.87 Q2263.45 1562.77 2259.44 1562.77 Q2257.57 1562.77 2255.69 1563.18 Q2253.84 1563.6 2251.89 1564.48 L2251.89 1547.12 Z" fill="#000000" fill-rule="evenodd" fill-opacity="1" /><path clip-path="url(#clip600)" d="M 0 0 M2287.87 1550.2 Q2284.26 1550.2 2282.43 1553.76 Q2280.62 1557.31 2280.62 1564.43 Q2280.62 1571.54 2282.43 1575.11 Q2284.26 1578.65 2287.87 1578.65 Q2291.5 1578.65 2293.31 1575.11 Q2295.14 1571.54 2295.14 1564.43 Q2295.14 1557.31 2293.31 1553.76 Q2291.5 1550.2 2287.87 1550.2 M2287.87 1546.49 Q2293.68 1546.49 2296.73 1551.1 Q2299.81 1555.68 2299.81 1564.43 Q2299.81 1573.16 2296.73 1577.77 Q2293.68 1582.35 2287.87 1582.35 Q2282.06 1582.35 2278.98 1577.77 Q2275.92 1573.16 2275.92 1564.43 Q2275.92 1555.68 2278.98 1551.1 Q2282.06 1546.49 2287.87 1546.49 Z" fill="#000000" fill-rule="evenodd" fill-opacity="1" /><path clip-path="url(#clip600)" d="M 0 0 M2314.88 1550.2 Q2311.27 1550.2 2309.44 1553.76 Q2307.64 1557.31 2307.64 1564.43 Q2307.64 1571.54 2309.44 1575.11 Q2311.27 1578.65 2314.88 1578.65 Q2318.51 1578.65 2320.32 1575.11 Q2322.15 1571.54 2322.15 1564.43 Q2322.15 1557.31 2320.32 1553.76 Q2318.51 1550.2 2314.88 1550.2 M2314.88 1546.49 Q2320.69 1546.49 2323.75 1551.1 Q2326.82 1555.68 2326.82 1564.43 Q2326.82 1573.16 2323.75 1577.77 Q2320.69 1582.35 2314.88 1582.35 Q2309.07 1582.35 2305.99 1577.77 Q2302.94 1573.16 2302.94 1564.43 Q2302.94 1555.68 2305.99 1551.1 Q2309.07 1546.49 2314.88 1546.49 Z" fill="#000000" fill-rule="evenodd" fill-opacity="1" /><polyline clip-path="url(#clip602)" style="stroke:#000000; stroke-width:2; stroke-opacity:0.1; fill:none" points="
  86.9921,1465.33 2352.76,1465.33 
  "/>
<polyline clip-path="url(#clip602)" style="stroke:#000000; stroke-width:2; stroke-opacity:0.1; fill:none" points="
  86.9921,1169.22 2352.76,1169.22 
  "/>
<polyline clip-path="url(#clip602)" style="stroke:#000000; stroke-width:2; stroke-opacity:0.1; fill:none" points="
  86.9921,873.104 2352.76,873.104 
  "/>
<polyline clip-path="url(#clip602)" style="stroke:#000000; stroke-width:2; stroke-opacity:0.1; fill:none" points="
  86.9921,576.991 2352.76,576.991 
  "/>
<polyline clip-path="url(#clip602)" style="stroke:#000000; stroke-width:2; stroke-opacity:0.1; fill:none" points="
  86.9921,280.879 2352.76,280.879 
  "/>
<polyline clip-path="url(#clip600)" style="stroke:#000000; stroke-width:4; stroke-opacity:1; fill:none" points="
  86.9921,1521.01 86.9921,47.2441 
  "/>
<polyline clip-path="url(#clip600)" style="stroke:#000000; stroke-width:4; stroke-opacity:1; fill:none" points="
  86.9921,1465.33 114.181,1465.33 
  "/>
<polyline clip-path="url(#clip600)" style="stroke:#000000; stroke-width:4; stroke-opacity:1; fill:none" points="
  86.9921,1169.22 114.181,1169.22 
  "/>
<polyline clip-path="url(#clip600)" style="stroke:#000000; stroke-width:4; stroke-opacity:1; fill:none" points="
  86.9921,873.104 114.181,873.104 
  "/>
<polyline clip-path="url(#clip600)" style="stroke:#000000; stroke-width:4; stroke-opacity:1; fill:none" points="
  86.9921,576.991 114.181,576.991 
  "/>
<polyline clip-path="url(#clip600)" style="stroke:#000000; stroke-width:4; stroke-opacity:1; fill:none" points="
  86.9921,280.879 114.181,280.879 
  "/>
<path clip-path="url(#clip600)" d="M 0 0 M-31.4843 1465.78 L-1.80852 1465.78 L-1.80852 1469.72 L-31.4843 1469.72 L-31.4843 1465.78 Z" fill="#000000" fill-rule="evenodd" fill-opacity="1" /><path clip-path="url(#clip600)" d="M 0 0 M4.07108 1478.67 L11.7099 1478.67 L11.7099 1452.31 L3.39979 1453.98 L3.39979 1449.72 L11.6636 1448.05 L16.3395 1448.05 L16.3395 1478.67 L23.9784 1478.67 L23.9784 1482.61 L4.07108 1482.61 L4.07108 1478.67 Z" fill="#000000" fill-rule="evenodd" fill-opacity="1" /><path clip-path="url(#clip600)" d="M 0 0 M39.0477 1451.13 Q35.4367 1451.13 33.608 1454.69 Q31.8024 1458.23 31.8024 1465.36 Q31.8024 1472.47 33.608 1476.04 Q35.4367 1479.58 39.0477 1479.58 Q42.682 1479.58 44.4875 1476.04 Q46.3162 1472.47 46.3162 1465.36 Q46.3162 1458.23 44.4875 1454.69 Q42.682 1451.13 39.0477 1451.13 M39.0477 1447.42 Q44.8579 1447.42 47.9134 1452.03 Q50.9921 1456.61 50.9921 1465.36 Q50.9921 1474.09 47.9134 1478.7 Q44.8579 1483.28 39.0477 1483.28 Q33.2376 1483.28 30.1589 1478.7 Q27.1034 1474.09 27.1034 1465.36 Q27.1034 1456.61 30.1589 1452.03 Q33.2376 1447.42 39.0477 1447.42 Z" fill="#000000" fill-rule="evenodd" fill-opacity="1" /><path clip-path="url(#clip600)" d="M 0 0 M-4.70202 1169.67 L24.9737 1169.67 L24.9737 1173.6 L-4.70202 1173.6 L-4.70202 1169.67 Z" fill="#000000" fill-rule="evenodd" fill-opacity="1" /><path clip-path="url(#clip600)" d="M 0 0 M30.0895 1151.94 L48.4458 1151.94 L48.4458 1155.87 L34.3718 1155.87 L34.3718 1164.34 Q35.3904 1164 36.4089 1163.83 Q37.4274 1163.65 38.4459 1163.65 Q44.2329 1163.65 47.6125 1166.82 Q50.9921 1169.99 50.9921 1175.41 Q50.9921 1180.99 47.5199 1184.09 Q44.0477 1187.17 37.7283 1187.17 Q35.5524 1187.17 33.2839 1186.8 Q31.0385 1186.43 28.6311 1185.69 L28.6311 1180.99 Q30.7145 1182.12 32.9367 1182.68 Q35.1589 1183.23 37.6357 1183.23 Q41.6403 1183.23 43.9783 1181.13 Q46.3162 1179.02 46.3162 1175.41 Q46.3162 1171.8 43.9783 1169.69 Q41.6403 1167.58 37.6357 1167.58 Q35.7607 1167.58 33.8857 1168 Q32.0339 1168.42 30.0895 1169.3 L30.0895 1151.94 Z" fill="#000000" fill-rule="evenodd" fill-opacity="1" /><path clip-path="url(#clip600)" d="M 0 0 M39.0477 858.903 Q35.4367 858.903 33.608 862.468 Q31.8024 866.009 31.8024 873.139 Q31.8024 880.245 33.608 883.81 Q35.4367 887.352 39.0477 887.352 Q42.682 887.352 44.4875 883.81 Q46.3162 880.245 46.3162 873.139 Q46.3162 866.009 44.4875 862.468 Q42.682 858.903 39.0477 858.903 M39.0477 855.199 Q44.8579 855.199 47.9134 859.806 Q50.9921 864.389 50.9921 873.139 Q50.9921 881.866 47.9134 886.472 Q44.8579 891.055 39.0477 891.055 Q33.2376 891.055 30.1589 886.472 Q27.1034 881.866 27.1034 873.139 Q27.1034 864.389 30.1589 859.806 Q33.2376 855.199 39.0477 855.199 Z" fill="#000000" fill-rule="evenodd" fill-opacity="1" /><path clip-path="url(#clip600)" d="M 0 0 M30.0895 559.711 L48.4458 559.711 L48.4458 563.647 L34.3718 563.647 L34.3718 572.119 Q35.3904 571.772 36.4089 571.609 Q37.4274 571.424 38.4459 571.424 Q44.2329 571.424 47.6125 574.596 Q50.9921 577.767 50.9921 583.184 Q50.9921 588.762 47.5199 591.864 Q44.0477 594.943 37.7283 594.943 Q35.5524 594.943 33.2839 594.572 Q31.0385 594.202 28.6311 593.461 L28.6311 588.762 Q30.7145 589.896 32.9367 590.452 Q35.1589 591.008 37.6357 591.008 Q41.6403 591.008 43.9783 588.901 Q46.3162 586.795 46.3162 583.184 Q46.3162 579.572 43.9783 577.466 Q41.6403 575.359 37.6357 575.359 Q35.7607 575.359 33.8857 575.776 Q32.0339 576.193 30.0895 577.072 L30.0895 559.711 Z" fill="#000000" fill-rule="evenodd" fill-opacity="1" /><path clip-path="url(#clip600)" d="M 0 0 M4.07108 294.224 L11.7099 294.224 L11.7099 267.858 L3.39979 269.525 L3.39979 265.265 L11.6636 263.599 L16.3395 263.599 L16.3395 294.224 L23.9784 294.224 L23.9784 298.159 L4.07108 298.159 L4.07108 294.224 Z" fill="#000000" fill-rule="evenodd" fill-opacity="1" /><path clip-path="url(#clip600)" d="M 0 0 M39.0477 266.677 Q35.4367 266.677 33.608 270.242 Q31.8024 273.784 31.8024 280.913 Q31.8024 288.02 33.608 291.585 Q35.4367 295.126 39.0477 295.126 Q42.682 295.126 44.4875 291.585 Q46.3162 288.02 46.3162 280.913 Q46.3162 273.784 44.4875 270.242 Q42.682 266.677 39.0477 266.677 M39.0477 262.974 Q44.8579 262.974 47.9134 267.58 Q50.9921 272.163 50.9921 280.913 Q50.9921 289.64 47.9134 294.247 Q44.8579 298.83 39.0477 298.83 Q33.2376 298.83 30.1589 294.247 Q27.1034 289.64 27.1034 280.913 Q27.1034 272.163 30.1589 267.58 Q33.2376 262.974 39.0477 262.974 Z" fill="#000000" fill-rule="evenodd" fill-opacity="1" /><polyline clip-path="url(#clip602)" style="stroke:#009af9; stroke-width:4; stroke-opacity:1; fill:none" points="
  151.118,866.432 155.401,858.745 159.685,876.232 163.968,902.781 168.252,896.832 172.535,919.007 176.819,935.992 181.103,916.246 185.386,945.148 189.67,953.715 
  193.953,972.859 198.237,970.309 202.521,976.337 206.804,978.764 211.088,966.782 215.371,975.067 219.655,1001.63 223.939,991.491 228.222,984.414 232.506,956.307 
  236.789,957.954 241.073,949.086 245.357,974.337 249.64,994.2 253.924,1022.68 258.207,1020.69 262.491,1006.72 266.775,1020.4 271.058,1043.69 275.342,1041.21 
  279.625,1024.45 283.909,1008.25 288.192,999.441 292.476,990.658 296.76,965.209 301.043,956.658 305.327,974.43 309.61,978.54 313.894,985.69 318.178,1005.44 
  322.461,1015.65 326.745,1011.8 331.028,988.161 335.312,987.948 339.596,958.514 343.879,944.881 348.163,939.809 352.446,949.444 356.73,919.918 361.014,892.775 
  365.297,918.939 369.581,945.608 373.864,957.728 378.148,956.382 382.432,958.33 386.715,979.154 390.999,979.115 395.282,973.814 399.566,964.884 403.85,946.727 
  408.133,917.308 412.417,918.657 416.7,919.493 420.984,898.697 425.267,869.859 429.551,843.124 433.835,864.21 438.118,872.08 442.402,885.759 446.685,880.863 
  450.969,887.508 455.253,891.174 459.536,897.874 463.82,907.866 468.103,898.178 472.387,892.448 476.671,881.652 480.954,868.675 485.238,866.787 489.521,886.11 
  493.805,874.504 498.089,898.551 502.372,915.609 506.656,893.394 510.939,912.255 515.223,914.986 519.507,895.232 523.79,899.438 528.074,907.253 532.357,893.216 
  536.641,872.661 540.924,860.695 545.208,842.369 549.492,841.37 553.775,817.829 558.059,834.394 562.342,842.836 566.626,820.168 570.91,802.253 575.193,781.431 
  579.477,762.853 583.76,769.323 588.044,788.255 592.328,773.995 596.611,755.072 600.895,762.79 605.178,769.275 609.462,740.397 613.746,763.27 618.029,737.499 
  622.313,763.654 626.596,777.807 630.88,797.684 635.164,823.731 639.447,851.234 643.731,841.714 648.014,862.802 652.298,888.639 656.582,893.564 660.865,919.468 
  665.149,932.115 669.432,952.564 673.716,926.534 677.999,906.322 682.283,924.519 686.567,929.577 690.85,911.039 695.134,931.437 699.417,926.281 703.701,919.056 
  707.985,925.069 712.268,917.42 716.552,897.91 720.835,924.889 725.119,917.284 729.403,903.409 733.686,916.405 737.97,936.063 742.253,931.147 746.537,931.335 
  750.821,953.536 755.104,981.301 759.388,967.047 763.671,955.607 767.955,944.44 772.239,916.617 776.522,910.566 780.806,896.409 785.089,910.896 789.373,912.513 
  793.656,915.254 797.94,913.812 802.224,924.54 806.507,931.175 810.791,909.769 815.074,912.944 819.358,893.652 823.642,879.908 827.925,899.296 832.209,882.92 
  836.492,900.545 840.776,882.454 845.06,853.778 849.343,875.454 853.627,901.313 857.91,922.24 862.194,928.391 866.478,943.115 870.761,966.529 875.045,984.083 
  879.328,974.009 883.612,1001.03 887.896,1005.37 892.179,984.192 896.463,1013.33 900.746,992.932 905.03,1012.5 909.314,1003.53 913.597,1011.39 917.881,1038.44 
  922.164,1050.13 926.448,1046.33 930.731,1051.03 935.015,1044.59 939.299,1072.32 943.582,1069.47 947.866,1077.3 952.149,1050.98 956.433,1046.63 960.717,1063.62 
  965,1047.29 969.284,1061.85 973.567,1062.8 977.851,1060.32 982.135,1080.46 986.418,1095.31 990.702,1078.62 994.985,1065.05 999.269,1051.03 1003.55,1047.97 
  1007.84,1048.12 1012.12,1056.78 1016.4,1086.05 1020.69,1086.61 1024.97,1060.51 1029.25,1040.25 1033.54,1054.67 1037.82,1031.53 1042.1,1040.8 1046.39,1029.85 
  1050.67,1059.05 1054.96,1052.65 1059.24,1074.02 1063.52,1052.66 1067.81,1026.1 1072.09,1049.93 1076.37,1049.24 1080.66,1032.54 1084.94,1014.29 1089.22,1017.95 
  1093.51,1043.02 1097.79,1065.41 1102.08,1079.01 1106.36,1105.43 1110.64,1121.28 1114.93,1121.57 1119.21,1140.15 1123.49,1151.92 1127.78,1176.74 1132.06,1193.82 
  1136.34,1182.54 1140.63,1193.73 1144.91,1221.23 1149.19,1192.29 1153.48,1176.96 1157.76,1150.65 1162.05,1171.09 1166.33,1142.1 1170.61,1152.23 1174.9,1146.68 
  1179.18,1174.52 1183.46,1179.56 1187.75,1151.15 1192.03,1172.15 1196.31,1188.77 1200.6,1210.2 1204.88,1218.57 1209.17,1199 1213.45,1180.89 1217.73,1178.81 
  1222.02,1191.82 1226.3,1173.84 1230.58,1186.96 1234.87,1199.03 1239.15,1222.79 1243.43,1222.49 1247.72,1228.05 1252,1234.15 1256.28,1261.03 1260.57,1234.72 
  1264.85,1253.01 1269.14,1276.04 1273.42,1280.76 1277.7,1270.18 1281.99,1258.98 1286.27,1264.77 1290.55,1275.76 1294.84,1299.23 1299.12,1314.44 1303.4,1303.01 
  1307.69,1322.52 1311.97,1336.81 1316.25,1332.6 1320.54,1310.75 1324.82,1303.42 1329.11,1307.11 1333.39,1299.4 1337.67,1302.86 1341.96,1300.98 1346.24,1272.54 
  1350.52,1273.63 1354.81,1259.82 1359.09,1256.91 1363.37,1261.69 1367.66,1269.09 1371.94,1251.25 1376.23,1258.78 1380.51,1283.28 1384.79,1295.7 1389.08,1304.89 
  1393.36,1295.55 1397.64,1271.3 1401.93,1286.54 1406.21,1305.41 1410.49,1314.43 1414.78,1326.61 1419.06,1308.72 1423.34,1282.77 1427.63,1294.45 1431.91,1267.43 
  1436.2,1288.07 1440.48,1306.41 1444.76,1330.39 1449.05,1357.77 1453.33,1369.08 1457.61,1355.51 1461.9,1338.34 1466.18,1340.88 1470.46,1311.93 1474.75,1329.26 
  1479.03,1357.28 1483.31,1359.03 1487.6,1354.92 1491.88,1373.59 1496.17,1377.64 1500.45,1362.84 1504.73,1362.39 1509.02,1355.27 1513.3,1344.1 1517.58,1343.56 
  1521.87,1358.42 1526.15,1362.07 1530.43,1347.81 1534.72,1371.02 1539,1360.79 1543.29,1375.66 1547.57,1367.26 1551.85,1357.1 1556.14,1365.65 1560.42,1358.23 
  1564.7,1349.73 1568.99,1374.78 1573.27,1356.43 1577.55,1334.08 1581.84,1321.75 1586.12,1348.28 1590.4,1355.67 1594.69,1374.32 1598.97,1388.03 1603.26,1364.26 
  1607.54,1393.1 1611.82,1382.07 1616.11,1403.13 1620.39,1416.05 1624.67,1387.97 1628.96,1400.5 1633.24,1415.68 1637.52,1432.6 1641.81,1410.48 1646.09,1423.68 
  1650.38,1432.82 1654.66,1424.96 1658.94,1397.12 1663.23,1399.34 1667.51,1421.1 1671.79,1419.46 1676.08,1433.37 1680.36,1438.37 1684.64,1465.97 1688.93,1456.31 
  1693.21,1479.3 1697.49,1452.31 1701.78,1436.81 1706.06,1413.02 1710.35,1391.89 1714.63,1374.54 1718.91,1398.78 1723.2,1398.87 1727.48,1410.17 1731.76,1439.65 
  1736.05,1461.76 1740.33,1457.28 1744.61,1431.36 1748.9,1402.34 1753.18,1411.92 1757.46,1383.07 1761.75,1362.37 1766.03,1339.34 1770.32,1359.38 1774.6,1367.71 
  1778.88,1363.27 1783.17,1376.43 1787.45,1375.52 1791.73,1376.51 1796.02,1375.63 1800.3,1403.24 1804.58,1424.43 1808.87,1409.32 1813.15,1398.32 1817.44,1404.95 
  1821.72,1395.56 1826,1415.32 1830.29,1386.94 1834.57,1363.33 1838.85,1375.47 1843.14,1351.1 1847.42,1361.2 1851.7,1368.9 1855.99,1387.53 1860.27,1383.28 
  1864.55,1398.59 1868.84,1393.05 1873.12,1393.55 1877.41,1395.18 1881.69,1408.71 1885.97,1423.72 1890.26,1415.67 1894.54,1405.64 1898.82,1398.39 1903.11,1386.7 
  1907.39,1401.42 1911.67,1387.64 1915.96,1395.39 1920.24,1378.39 1924.53,1393.26 1928.81,1375.65 1933.09,1383.46 1937.38,1409.81 1941.66,1409.41 1945.94,1431.85 
  1950.23,1442.38 1954.51,1466.61 1958.79,1473.39 1963.08,1447.99 1967.36,1423.81 1971.64,1415.2 1975.93,1400.41 1980.21,1420.12 1984.5,1401.13 1988.78,1395.61 
  1993.06,1424.89 1997.35,1440.34 2001.63,1415.03 2005.91,1389.84 2010.2,1374.82 2014.48,1390.4 2018.76,1373.85 2023.05,1394.32 2027.33,1393.21 2031.61,1365.64 
  2035.9,1352.94 2040.18,1362.23 2044.47,1369.98 2048.75,1345.45 2053.03,1362 2057.32,1348.01 2061.6,1360.88 2065.88,1345.88 2070.17,1320.36 2074.45,1323.84 
  2078.73,1353.25 2083.02,1376.92 2087.3,1349.82 2091.59,1325.29 2095.87,1301.99 2100.15,1290.21 2104.44,1316.19 2108.72,1336.41 2113,1334.26 2117.29,1343.56 
  2121.57,1329.24 2125.85,1310.09 2130.14,1288.65 2134.42,1288.37 2138.7,1292.1 2142.99,1295 2147.27,1302.18 2151.56,1273.37 2155.84,1285.71 2160.12,1289.52 
  2164.41,1311.58 2168.69,1338.84 2172.97,1346.68 2177.26,1361.88 2181.54,1371.08 2185.82,1351.48 2190.11,1374.86 2194.39,1392.01 2198.68,1401.55 2202.96,1427.29 
  2207.24,1437.33 2211.53,1460.77 2215.81,1436.74 2220.09,1463.39 2224.38,1476.4 2228.66,1470.57 2232.94,1471.11 2237.23,1476.13 2241.51,1477.02 2245.79,1453.79 
  2250.08,1447.57 2254.36,1424.04 2258.65,1434.16 2262.93,1418 2267.21,1421 2271.5,1415.54 2275.78,1423.49 2280.06,1408.36 2284.35,1429.87 2288.63,1455.65 
  
  "/>
<polyline clip-path="url(#clip602)" style="stroke:#e26f46; stroke-width:4; stroke-opacity:1; fill:none" points="
  151.118,852.906 155.401,859.398 159.685,831.449 163.968,851.694 168.252,822.736 172.535,845.907 176.819,825.218 181.103,829.83 185.386,827.393 189.67,850.01 
  193.953,833.277 198.237,804.127 202.521,805.308 206.804,776.672 211.088,765.588 215.371,776.178 219.655,799.947 223.939,772.477 228.222,790.592 232.506,793.045 
  236.789,768.178 241.073,773.329 245.357,800.844 249.64,791.304 253.924,785.22 258.207,760.936 262.491,783.224 266.775,773.957 271.058,803.394 275.342,787.093 
  279.625,765.092 283.909,750.428 288.192,762.601 292.476,742.452 296.76,727.61 301.043,746.551 305.327,732.619 309.61,723.004 313.894,736.596 318.178,765.106 
  322.461,739.934 326.745,755.226 331.028,728.214 335.312,719.612 339.596,724.655 343.879,738.8 348.163,724.594 352.446,719.883 356.73,705.53 361.014,727.252 
  365.297,719.336 369.581,705.447 373.864,697.132 378.148,721.506 382.432,713.408 386.715,705.5 390.999,677.82 395.282,678.393 399.566,660.874 403.85,687.545 
  408.133,673.252 412.417,670.659 416.7,655.515 420.984,632.459 425.267,619.913 429.551,606.809 433.835,594.742 438.118,587.497 442.402,595.075 446.685,606.276 
  450.969,601.643 455.253,587.804 459.536,608.349 463.82,617.829 468.103,640.982 472.387,630.549 476.671,624.98 480.954,650.27 485.238,630.886 489.521,640.742 
  493.805,632.872 498.089,613.77 502.372,605.362 506.656,625.927 510.939,599.434 515.223,618.64 519.507,646.889 523.79,654.116 528.074,632.191 532.357,635.248 
  536.641,627.834 540.924,618.452 545.208,614.786 549.492,588.233 553.775,575.006 558.059,549.397 562.342,551.11 566.626,549.666 570.91,573.201 575.193,553.062 
  579.477,539.95 583.76,536.065 588.044,515.473 592.328,509.22 596.611,527.344 600.895,523.351 605.178,518.571 609.462,548.042 613.746,562.207 618.029,580.977 
  622.313,586.788 626.596,599.259 630.88,610.761 635.164,620.436 639.447,626.277 643.731,612.909 648.014,586.129 652.298,577.147 656.582,552.208 660.865,523.997 
  665.149,546.367 669.432,565.676 673.716,576.207 677.999,598.179 682.283,584.717 686.567,560.528 690.85,582.467 695.134,571.469 699.417,579.711 703.701,596.776 
  707.985,615.597 712.268,590.57 716.552,562.836 720.835,566.15 725.119,545.298 729.403,534.002 733.686,549.146 737.97,572.434 742.253,557.628 746.537,531.169 
  750.821,541.878 755.104,559.072 759.388,567.38 763.671,559.199 767.955,544.781 772.239,544.912 776.522,527.698 780.806,513.13 785.089,517.543 789.373,530.918 
  793.656,524.85 797.94,552.557 802.224,534.459 806.507,562.835 810.791,541.698 815.074,541.005 819.358,555.956 823.642,553.496 827.925,524.017 832.209,542.189 
  836.492,552.003 840.776,564.862 845.06,560.136 849.343,538.395 853.627,565.865 857.91,540.92 862.194,511.849 866.478,537.164 870.761,528.463 875.045,545.939 
  879.328,519.18 883.612,537.044 887.896,559.731 892.179,547.225 896.463,564.973 900.746,589.023 905.03,608.663 909.314,588.162 913.597,584.434 917.881,610.14 
  922.164,599.464 926.448,612.63 930.731,640.603 935.015,614.077 939.299,601.797 943.582,609.54 947.866,586.656 952.149,560.52 956.433,534.149 960.717,524.06 
  965,513.475 969.284,518.545 973.567,527.45 977.851,516.717 982.135,502.083 986.418,482.274 990.702,492.125 994.985,497.428 999.269,512.47 1003.55,521.892 
  1007.84,495.435 1012.12,492.955 1016.4,517.218 1020.69,520.705 1024.97,509.599 1029.25,510.358 1033.54,499.881 1037.82,513.469 1042.1,489.697 1046.39,461.419 
  1050.67,442.836 1054.96,464.259 1059.24,455.962 1063.52,432.73 1067.81,450.949 1072.09,472.002 1076.37,457.795 1080.66,467.793 1084.94,457.518 1089.22,464.488 
  1093.51,460.228 1097.79,462.872 1102.08,436.933 1106.36,422.128 1110.64,411.998 1114.93,406.992 1119.21,422.925 1123.49,429.957 1127.78,438.282 1132.06,413.499 
  1136.34,415.016 1140.63,427.451 1144.91,416.105 1149.19,439.54 1153.48,439.956 1157.76,433.761 1162.05,448.506 1166.33,460.616 1170.61,489.799 1174.9,469.568 
  1179.18,456.124 1183.46,456.608 1187.75,463.386 1192.03,449.431 1196.31,429.766 1200.6,447.593 1204.88,428.139 1209.17,422.926 1213.45,413.509 1217.73,414.332 
  1222.02,403.124 1226.3,413.74 1230.58,418.997 1234.87,434.172 1239.15,454.818 1243.43,470.871 1247.72,458.561 1252,437.756 1256.28,427.719 1260.57,455.343 
  1264.85,457.128 1269.14,447.41 1273.42,465.641 1277.7,462.988 1281.99,458.282 1286.27,438.347 1290.55,465.146 1294.84,438.708 1299.12,410.688 1303.4,402.763 
  1307.69,390.549 1311.97,373.465 1316.25,364.307 1320.54,335.286 1324.82,315.318 1329.11,334.664 1333.39,332.635 1337.67,344.03 1341.96,362.811 1346.24,376.436 
  1350.52,393.442 1354.81,409.568 1359.09,413.361 1363.37,434.959 1367.66,458.425 1371.94,444.049 1376.23,457.63 1380.51,448.16 1384.79,451.621 1389.08,422.726 
  1393.36,433.171 1397.64,453.204 1401.93,431.091 1406.21,448.468 1410.49,429.341 1414.78,412.668 1419.06,434.466 1423.34,442.405 1427.63,434.242 1431.91,417.913 
  1436.2,388.649 1440.48,412.944 1444.76,438.643 1449.05,410.478 1453.33,393.095 1457.61,368.325 1461.9,352.019 1466.18,338.161 1470.46,359.364 1474.75,338.256 
  1479.03,364.922 1483.31,370.323 1487.6,388.456 1491.88,396.609 1496.17,402.603 1500.45,392.603 1504.73,419.879 1509.02,411.353 1513.3,403.983 1517.58,393.566 
  1521.87,419.244 1526.15,446.758 1530.43,469.46 1534.72,447.735 1539,424.555 1543.29,417.291 1547.57,417.236 1551.85,429.393 1556.14,417.365 1560.42,407.892 
  1564.7,426.205 1568.99,416.498 1573.27,421.072 1577.55,436.409 1581.84,423.047 1586.12,401.328 1590.4,385.585 1594.69,375.636 1598.97,403.195 1603.26,431.633 
  1607.54,410.07 1611.82,414.083 1616.11,401.586 1620.39,419.247 1624.67,442.037 1628.96,459.086 1633.24,452.92 1637.52,473.471 1641.81,455.838 1646.09,474.516 
  1650.38,468.84 1654.66,442.152 1658.94,424.376 1663.23,411.183 1667.51,406.795 1671.79,407.084 1676.08,379.231 1680.36,396.796 1684.64,391.834 1688.93,371.717 
  1693.21,365.299 1697.49,348.159 1701.78,320.522 1706.06,347.23 1710.35,367.178 1714.63,392.082 1718.91,385.926 1723.2,388.288 1727.48,415.417 1731.76,396.032 
  1736.05,399.334 1740.33,374.298 1744.61,344.924 1748.9,345.957 1753.18,324.334 1757.46,333.322 1761.75,358.58 1766.03,363.753 1770.32,363.831 1774.6,391.743 
  1778.88,406.831 1783.17,404.292 1787.45,415.883 1791.73,388.749 1796.02,387.074 1800.3,368.607 1804.58,394.913 1808.87,374.761 1813.15,373.868 1817.44,365.826 
  1821.72,356.396 1826,326.891 1830.29,322.1 1834.57,346.424 1838.85,317.047 1843.14,295.981 1847.42,319.485 1851.7,300.07 1855.99,313.73 1860.27,284.251 
  1864.55,300.222 1868.84,295.073 1873.12,281.97 1877.41,263.929 1881.69,271.308 1885.97,255.595 1890.26,238.328 1894.54,249.246 1898.82,270.027 1903.11,257.707 
  1907.39,236.18 1911.67,260.66 1915.96,258.753 1920.24,259.327 1924.53,279.824 1928.81,264.923 1933.09,272.53 1937.38,258.907 1941.66,247.271 1945.94,250.683 
  1950.23,264.314 1954.51,253.956 1958.79,226.564 1963.08,217.138 1967.36,230.891 1971.64,225.802 1975.93,246.381 1980.21,261.445 1984.5,234.246 1988.78,239.575 
  1993.06,221.897 1997.35,218.32 2001.63,222.541 2005.91,195.608 2010.2,184.988 2014.48,177.414 2018.76,194.568 2023.05,166.01 2027.33,147.705 2031.61,158.093 
  2035.9,134.631 2040.18,116.588 2044.47,127.429 2048.75,114.245 2053.03,111.912 2057.32,88.9544 2061.6,102.295 2065.88,126.56 2070.17,135.027 2074.45,146.796 
  2078.73,167.255 2083.02,189.708 2087.3,214.063 2091.59,195.323 2095.87,179.41 2100.15,185.385 2104.44,207.237 2108.72,214.925 2113,205.826 2117.29,185.129 
  2121.57,167.117 2125.85,190.205 2130.14,179.154 2134.42,201.028 2138.7,206.667 2142.99,189.863 2147.27,191.42 2151.56,171.351 2155.84,181.612 2160.12,211.043 
  2164.41,218.94 2168.69,247.902 2172.97,257.053 2177.26,257.452 2181.54,263.932 2185.82,246.421 2190.11,223.381 2194.39,234.953 2198.68,239.457 2202.96,211.095 
  2207.24,202.302 2211.53,201.613 2215.81,228.929 2220.09,211.167 2224.38,225.412 2228.66,210.37 2232.94,232.934 2237.23,262.517 2241.51,275.859 2245.79,282.845 
  2250.08,310.267 2254.36,316.842 2258.65,342.637 2262.93,357.729 2267.21,376.271 2271.5,398.671 2275.78,381.735 2280.06,397.962 2284.35,416.767 2288.63,403.621 
  
  "/>
<path clip-path="url(#clip600)" d="
M1974.46 277.81 L2277.23 277.81 L2277.23 96.3696 L1974.46 96.3696  Z
  " fill="#ffffff" fill-rule="evenodd" fill-opacity="1"/>
<polyline clip-path="url(#clip600)" style="stroke:#000000; stroke-width:4; stroke-opacity:1; fill:none" points="
  1974.46,277.81 2277.23,277.81 2277.23,96.3696 1974.46,96.3696 1974.46,277.81 
  "/>
<polyline clip-path="url(#clip600)" style="stroke:#009af9; stroke-width:4; stroke-opacity:1; fill:none" points="
  1999.64,156.85 2150.69,156.85 
  "/>
<path clip-path="url(#clip600)" d="M 0 0 M2189.7 176.537 Q2187.9 181.167 2186.19 182.579 Q2184.47 183.991 2181.6 183.991 L2178.2 183.991 L2178.2 180.426 L2180.7 180.426 Q2182.46 180.426 2183.43 179.592 Q2184.4 178.759 2185.58 175.657 L2186.35 173.713 L2175.86 148.204 L2180.38 148.204 L2188.48 168.481 L2196.58 148.204 L2201.09 148.204 L2189.7 176.537 Z" fill="#000000" fill-rule="evenodd" fill-opacity="1" /><path clip-path="url(#clip600)" d="M 0 0 M2206.97 170.194 L2214.61 170.194 L2214.61 143.829 L2206.3 145.495 L2206.3 141.236 L2214.57 139.57 L2219.24 139.57 L2219.24 170.194 L2226.88 170.194 L2226.88 174.13 L2206.97 174.13 L2206.97 170.194 Z" fill="#000000" fill-rule="evenodd" fill-opacity="1" /><polyline clip-path="url(#clip600)" style="stroke:#e26f46; stroke-width:4; stroke-opacity:1; fill:none" points="
  1999.64,217.33 2150.69,217.33 
  "/>
<path clip-path="url(#clip600)" d="M 0 0 M2189.7 237.017 Q2187.9 241.647 2186.19 243.059 Q2184.47 244.471 2181.6 244.471 L2178.2 244.471 L2178.2 240.906 L2180.7 240.906 Q2182.46 240.906 2183.43 240.072 Q2184.4 239.239 2185.58 236.137 L2186.35 234.193 L2175.86 208.684 L2180.38 208.684 L2188.48 228.961 L2196.58 208.684 L2201.09 208.684 L2189.7 237.017 Z" fill="#000000" fill-rule="evenodd" fill-opacity="1" /><path clip-path="url(#clip600)" d="M 0 0 M2210.19 230.674 L2226.51 230.674 L2226.51 234.61 L2204.57 234.61 L2204.57 230.674 Q2207.23 227.92 2211.81 223.29 Q2216.42 218.637 2217.6 217.295 Q2219.84 214.772 2220.72 213.036 Q2221.63 211.276 2221.63 209.587 Q2221.63 206.832 2219.68 205.096 Q2217.76 203.36 2214.66 203.36 Q2212.46 203.36 2210.01 204.124 Q2207.57 204.887 2204.8 206.438 L2204.8 201.716 Q2207.62 200.582 2210.07 200.003 Q2212.53 199.425 2214.57 199.425 Q2219.94 199.425 2223.13 202.11 Q2226.32 204.795 2226.32 209.286 Q2226.32 211.415 2225.51 213.337 Q2224.73 215.235 2222.62 217.827 Q2222.04 218.499 2218.94 221.716 Q2215.84 224.911 2210.19 230.674 Z" fill="#000000" fill-rule="evenodd" fill-opacity="1" /></svg>
